<svg width="284" height="121" viewBox="0 0 284 121" fill="none" xmlns="http://www.w3.org/2000/svg">
<path d="M14.688 78.568C15.072 80.36 15.808 81.992 16.896 83.464C18.048 84.872 19.552 85.992 21.408 86.824C23.328 87.656 25.6 88.072 28.224 88.072C32.256 88.072 35.264 87.144 37.248 85.288C39.232 83.368 40.224 81.128 40.224 78.568C40.224 76.456 39.584 74.696 38.304 73.288C37.088 71.88 35.36 70.696 33.12 69.736C30.88 68.712 28.32 67.752 25.44 66.856C22.816 66.088 20.288 65.288 17.856 64.456C15.424 63.56 13.216 62.472 11.232 61.192C9.312 59.848 7.776 58.152 6.624 56.104C5.472 53.992 4.928 51.368 4.992 48.232C4.992 44.136 5.952 40.68 7.872 37.864C9.792 34.984 12.48 32.808 15.936 31.336C19.392 29.864 23.36 29.128 27.84 29.128C31.616 29.128 35.008 29.672 38.016 30.76C41.088 31.784 43.68 33.32 45.792 35.368C47.904 37.352 49.472 39.816 50.496 42.76L40.032 46.216C39.648 44.808 38.88 43.56 37.728 42.472C36.576 41.32 35.136 40.424 33.408 39.784C31.744 39.144 29.92 38.792 27.936 38.728C25.76 38.664 23.808 38.984 22.08 39.688C20.416 40.392 19.072 41.416 18.048 42.76C17.024 44.04 16.512 45.544 16.512 47.272C16.512 49.256 17.088 50.824 18.24 51.976C19.392 53.064 20.896 53.992 22.752 54.76C24.672 55.464 26.784 56.2 29.088 56.968C31.776 57.736 34.432 58.632 37.056 59.656C39.744 60.616 42.176 61.864 44.352 63.4C46.592 64.872 48.384 66.76 49.728 69.064C51.072 71.368 51.744 74.248 51.744 77.704C51.744 81.416 50.88 84.776 49.152 87.784C47.488 90.792 44.928 93.192 41.472 94.984C38.016 96.776 33.728 97.672 28.608 97.672C24.448 97.672 20.64 97.064 17.184 95.848C13.792 94.568 10.944 92.776 8.64 90.472C6.4 88.104 4.928 85.32 4.224 82.12L14.688 78.568ZM108.865 39.304H74.4008V58.216H100.225V67.72H74.4008V87.496H108.865V97H62.9768V29.8H108.865V39.304ZM175.438 29.8V97H163.822L132.526 47.752V97H121.102V29.8H132.814L164.11 78.856V29.8H175.438Z" fill="white"/>
<path d="M217.571 97L216.611 91.144C215.075 93.192 213.251 94.76 211.139 95.848C209.027 96.936 206.211 97.48 202.691 97.48C199.363 97.48 196.483 96.936 194.051 95.848C191.619 94.696 189.731 93.128 188.387 91.144C187.107 89.096 186.467 86.728 186.467 84.04C186.467 80.008 187.939 76.648 190.883 73.96C193.891 71.208 198.275 69.512 204.035 68.872L216.611 67.528V63.784C216.611 62.248 215.939 60.872 214.595 59.656C213.251 58.376 211.107 57.736 208.163 57.736C205.603 57.736 203.363 58.376 201.443 59.656C199.587 60.872 198.339 62.728 197.699 65.224L188.291 61.768C189.507 57.544 191.907 54.248 195.491 51.88C199.139 49.512 203.555 48.328 208.739 48.328C215.011 48.328 219.715 49.896 222.851 53.032C225.987 56.168 227.555 60.168 227.555 65.032V97H217.571ZM216.611 75.88L205.091 77.32C202.659 77.64 200.835 78.344 199.619 79.432C198.403 80.456 197.795 81.768 197.795 83.368C197.795 84.84 198.371 86.12 199.523 87.208C200.739 88.232 202.371 88.744 204.419 88.744C207.043 88.744 209.251 88.264 211.043 87.304C212.899 86.344 214.275 84.968 215.171 83.176C216.131 81.384 216.611 79.176 216.611 76.552V75.88ZM241.124 49H251.972V97H241.124V49ZM246.596 41.704C244.612 41.704 242.948 41.032 241.604 39.688C240.26 38.344 239.588 36.744 239.588 34.888C239.588 32.904 240.26 31.24 241.604 29.896C242.948 28.552 244.612 27.88 246.596 27.88C248.516 27.88 250.148 28.552 251.492 29.896C252.836 31.24 253.508 32.904 253.508 34.888C253.508 36.744 252.836 38.344 251.492 39.688C250.148 41.032 248.516 41.704 246.596 41.704Z" fill="#02A9F7"/>
<path d="M263.535 0C263.108 0 262.682 0.216361 262.447 0.646641L259.321 6.36227C258.637 7.61094 257.612 8.63856 256.363 9.3218L250.645 12.4484C249.785 12.9184 249.785 14.1521 250.645 14.6233L256.363 17.7523C257.612 18.4356 258.637 19.4608 259.321 20.7095L262.447 26.4275C262.683 26.8578 263.109 27.0717 263.535 27.0717C263.96 27.0717 264.388 26.8578 264.622 26.4275L267.749 20.7095C268.432 19.4608 269.457 18.4343 270.706 17.7523L276.424 14.6233C277.284 14.1533 277.284 12.9196 276.424 12.4484L270.706 9.3218C269.457 8.63856 268.432 7.61094 267.749 6.36227L264.622 0.646641C264.388 0.217601 263.961 0 263.535 0ZM263.535 3.82414L265.574 7.55383C266.486 9.22163 267.849 10.5852 269.517 11.4966L273.246 13.5359L269.517 15.5775C267.849 16.4889 266.485 17.8525 265.574 19.5203L263.535 23.2476L261.495 19.5203C260.583 17.8525 259.22 16.4889 257.553 15.5775L253.823 13.5359L257.553 11.4966C259.22 10.5852 260.584 9.22163 261.495 7.55383L263.535 3.82414ZM276.39 22.36C275.844 22.3625 275.346 22.6589 275.089 23.1326L273.566 25.9177C273.453 26.1261 273.284 26.2941 273.074 26.4094L270.294 27.9327C269.815 28.1919 269.519 28.6913 269.517 29.2357C269.515 29.7813 269.812 30.2806 270.292 30.5435L273.074 32.0693C273.281 32.1809 273.451 32.3514 273.566 32.5609L275.087 35.3364C275.346 35.8188 275.847 36.1174 276.392 36.1187H276.395C276.94 36.1187 277.441 35.8223 277.7 35.3437L279.224 32.5609C279.338 32.3526 279.508 32.1822 279.715 32.0669L282.498 30.5459C282.979 30.2843 283.274 29.7825 283.273 29.2357C283.272 28.6889 282.974 28.1894 282.5 27.9352L279.715 26.4094C279.506 26.2953 279.338 26.1248 279.224 25.9177L277.7 23.135V23.1326C277.437 22.6564 276.938 22.36 276.395 22.36H276.39ZM276.395 25.9177L277.046 27.1093C277.387 27.7343 277.897 28.2444 278.524 28.5866L279.718 29.2381L278.524 29.892C277.9 30.2343 277.391 30.7432 277.049 31.3694L276.395 32.5609L275.743 31.367C275.401 30.742 274.891 30.2318 274.266 29.892L273.074 29.2381L274.266 28.5891C274.891 28.2468 275.402 27.7343 275.743 27.1093L276.395 25.9177Z" fill="#02A9F7"/>
<path d="M263.535 3.82414L265.574 7.55383C266.486 9.22163 267.849 10.5852 269.517 11.4966L273.246 13.5359L269.517 15.5775C267.849 16.4889 266.485 17.8525 265.574 19.5203L263.535 23.2476L261.495 19.5203C260.583 17.8525 259.22 16.4889 257.553 15.5775L253.823 13.5359L257.553 11.4966C259.22 10.5852 260.584 9.22163 261.495 7.55383L263.535 3.82414Z" fill="#02A9F7"/>
<path d="M276.395 25.9177L277.046 27.1093C277.387 27.7343 277.897 28.2444 278.524 28.5866L279.718 29.2381L278.524 29.892C277.9 30.2343 277.391 30.7432 277.049 31.3694L276.395 32.5609L275.743 31.367C275.401 30.742 274.891 30.2318 274.266 29.892L273.074 29.2381L274.266 28.5891C274.891 28.2468 275.402 27.7343 275.743 27.1093L276.395 25.9177Z" fill="#02A9F7"/>
</svg>
